{
	"asset":{
		"generator":"Khronos glTF Blender I/O v3.6.27",
		"version":"2.0"
	},
	"scene":0,
	"scenes":[
		{
			"name":"Scene",
			"nodes":[
				4
			]
		}
	],
	"nodes":[
		{
			"mesh":0,
			"name":"Final_lambert1_0"
		},
		{
			"children":[
				0
			],
			"name":"Final"
		},
		{
			"children":[
				1
			],
			"name":"RootNode"
		},
		{
			"children":[
				2
			],
			"name":"78a9345b4b264479ae16e7fcb2ccb6b9.fbx",
			"rotation":[
				0.70710688829422,
				0,
				0,
				0.7071066498756409
			],
			"scale":[
				0.010000000707805157,
				0.010000000707805157,
				0.010000000707805157
			]
		},
		{
			"children":[
				3
			],
			"name":"Sketchfab_model",
			"rotation":[
				-0.70710688829422,
				0,
				0,
				0.7071066498756409
			],
			"scale":[
				21.276596069335938,
				21.27659797668457,
				21.27659797668457
			]
		}
	],
	"materials":[
		{
			"emissiveFactor":[
				1,
				1,
				1
			],
			"emissiveTexture":{
				"index":0
			},
			"name":"lambert1",
			"normalTexture":{
				"index":1
			},
			"pbrMetallicRoughness":{
				"baseColorTexture":{
					"index":2
				},
				"metallicRoughnessTexture":{
					"index":3
				}
			}
		}
	],
	"meshes":[
		{
			"name":"Final_lambert1_0",
			"primitives":[
				{
					"attributes":{
						"POSITION":0,
						"NORMAL":1,
						"TEXCOORD_0":2
					},
					"indices":3,
					"material":0
				}
			]
		}
	],
	"textures":[
		{
			"sampler":0,
			"source":0
		},
		{
			"sampler":0,
			"source":1
		},
		{
			"sampler":0,
			"source":2
		},
		{
			"sampler":0,
			"source":3
		}
	],
	"images":[
		{
			"mimeType":"image/jpeg",
			"name":"lambert1_emissive",
			"uri":"textures/lambert1_emissive.jpg"
		},
		{
			"mimeType":"image/png",
			"name":"lambert1_normal",
			"uri":"textures/lambert1_normal.png"
		},
		{
			"mimeType":"image/jpeg",
			"name":"lambert1_baseColor",
			"uri":"textures/lambert1_baseColor.jpg"
		},
		{
			"mimeType":"image/png",
			"name":"lambert1_metallicRoughness",
			"uri":"textures/lambert1_metallicRoughness.png"
		}
	],
	"accessors":[
		{
			"bufferView":0,
			"componentType":5126,
			"count":20685,
			"max":[
				7.077610015869141,
				10.59686279296875,
				5.553310871124268
			],
			"min":[
				-4.0127058029174805,
				2.87808895111084,
				-2.9568533897399902
			],
			"type":"VEC3"
		},
		{
			"bufferView":1,
			"componentType":5126,
			"count":20685,
			"type":"VEC3"
		},
		{
			"bufferView":2,
			"componentType":5126,
			"count":20685,
			"type":"VEC2"
		},
		{
			"bufferView":3,
			"componentType":5123,
			"count":89874,
			"type":"SCALAR"
		}
	],
	"bufferViews":[
		{
			"buffer":0,
			"byteLength":248220,
			"byteOffset":0,
			"target":34962
		},
		{
			"buffer":0,
			"byteLength":248220,
			"byteOffset":248220,
			"target":34962
		},
		{
			"buffer":0,
			"byteLength":165480,
			"byteOffset":496440,
			"target":34962
		},
		{
			"buffer":0,
			"byteLength":179748,
			"byteOffset":661920,
			"target":34963
		}
	],
	"samplers":[
		{
			"magFilter":9729,
			"minFilter":9987
		}
	],
	"buffers":[
		{
			"byteLength":841668,
			"uri":"scene.bin"
		}
	]
}
