<?xml version="1.0" standalone="no"?>
<!DOCTYPE svg PUBLIC "-//W3C//DTD SVG 20010904//EN"
 "http://www.w3.org/TR/2001/REC-SVG-20010904/DTD/svg10.dtd">
<svg version="1.0" xmlns="http://www.w3.org/2000/svg"
 width="1168.000000pt" height="1167.000000pt" viewBox="0 0 1168.000000 1167.000000"
 preserveAspectRatio="xMidYMid meet">

<g transform="translate(0.000000,1167.000000) scale(0.100000,-0.100000)"
fill="#000000" stroke="none">
<path d="M5680 11661 l-34 -6 -75 -302 c-42 -167 -78 -303 -81 -303 -3 0 -61
129 -130 286 l-124 286 -68 -4 c-37 -2 -70 -7 -74 -11 -4 -4 9 -204 30 -444
20 -241 36 -446 36 -457 0 -16 7 -18 69 -14 39 2 73 7 77 11 4 3 -1 98 -11
211 -9 112 -15 210 -13 217 2 7 42 -80 88 -194 45 -113 86 -211 90 -217 4 -7
26 -8 61 -4 l55 6 55 242 c31 138 55 228 57 211 2 -16 11 -122 20 -235 l17
-205 70 3 c39 2 72 6 75 8 4 4 -13 220 -57 737 l-17 187 -40 -1 c-23 -1 -57
-4 -76 -8z"/>
<path d="M4226 11441 c-28 -9 -51 -22 -53 -27 -2 -5 28 -104 67 -219 38 -115
70 -217 70 -225 0 -9 -12 -28 -27 -43 -63 -60 -178 -77 -226 -33 -35 33 -47
59 -111 254 -32 94 -63 172 -68 172 -24 0 -121 -35 -124 -45 -7 -17 125 -397
151 -437 85 -130 278 -156 421 -57 l42 29 16 -47 c25 -72 21 -110 -14 -144
l-30 -30 37 -45 c21 -24 40 -44 43 -44 22 0 99 63 113 93 35 72 26 116 -104
504 -95 287 -124 363 -137 362 -9 0 -39 -8 -66 -18z"/>
<path d="M7481 11354 c-18 -51 -21 -68 -11 -74 7 -4 97 -36 201 -71 104 -35
189 -66 189 -69 0 -3 -142 -108 -315 -233 l-314 -229 -20 -61 c-12 -33 -18
-63 -15 -66 10 -10 598 -210 604 -206 8 5 44 124 39 128 -2 2 -100 36 -216 77
l-213 72 163 118 c89 64 232 167 317 229 l155 111 23 67 c12 37 19 70 15 74
-7 6 -563 199 -574 199 -2 0 -15 -30 -28 -66z"/>
<path d="M2914 10886 c-104 -33 -227 -133 -260 -211 -8 -19 -14 -59 -14 -90 0
-93 53 -169 139 -200 54 -19 96 -19 238 0 147 19 197 10 247 -46 28 -30 36
-48 36 -77 0 -73 -76 -143 -165 -150 -44 -4 -55 0 -82 22 -17 14 -34 26 -38
26 -4 0 -34 -22 -66 -49 l-59 -50 32 -32 c112 -111 290 -97 445 36 147 126
116 359 -60 449 -66 34 -124 38 -345 22 -111 -8 -124 -7 -142 9 -35 31 -27 82
19 126 36 34 131 79 166 79 17 0 18 11 6 60 -5 19 -12 47 -15 63 -7 30 -19 32
-82 13z"/>
<path d="M8586 10589 c-98 -161 -187 -310 -197 -333 -25 -55 -24 -129 2 -183
11 -23 45 -65 75 -92 130 -119 310 -123 396 -9 29 39 364 585 373 609 5 13 -9
26 -55 54 -34 20 -62 36 -64 34 -1 -2 -79 -129 -172 -282 -93 -153 -184 -294
-203 -313 -43 -42 -85 -45 -147 -9 -51 30 -64 50 -64 100 0 46 0 46 196 367
90 148 164 272 164 276 0 7 -106 72 -119 72 -4 0 -87 -131 -185 -291z"/>
<path d="M1895 10160 l-59 -59 28 -153 c15 -84 30 -166 33 -183 5 -27 -7 -17
-104 78 l-109 107 -57 -51 -58 -51 73 -77 c40 -42 187 -193 326 -335 l253
-260 57 57 57 57 -125 125 c-68 68 -121 127 -118 130 3 4 101 -13 218 -36
l212 -42 65 65 65 65 -113 22 c-63 12 -197 38 -300 57 l-185 36 -44 254 c-24
140 -46 254 -50 254 -3 0 -32 -27 -65 -60z"/>
<path d="M9540 9745 l-325 -325 125 -125 c153 -154 196 -179 299 -173 59 3 76
9 124 40 93 62 146 163 133 255 l-6 43 33 0 c44 0 130 44 163 83 62 74 77 145
47 233 -13 39 -40 73 -136 172 -66 67 -123 122 -126 122 -3 0 -152 -146 -331
-325z m379 70 c73 -79 75 -121 10 -180 -25 -22 -49 -35 -67 -35 -30 0 -105 43
-136 79 l-20 22 79 79 c44 44 82 80 86 80 4 0 25 -20 48 -45z m-198 -347 c10
-21 19 -47 19 -59 0 -32 -36 -85 -74 -108 -66 -41 -127 -21 -216 73 l-34 36
94 95 94 95 49 -48 c27 -26 57 -64 68 -84z"/>
<path d="M916 9014 l-58 -86 35 -37 c19 -20 164 -173 322 -341 158 -168 291
-306 295 -308 8 -3 90 119 90 134 0 5 -36 45 -80 89 -44 44 -80 83 -80 87 0
12 100 163 111 166 5 2 59 -15 119 -39 61 -23 112 -40 113 -38 33 46 89 141
85 144 -3 3 -198 72 -434 154 -236 83 -436 152 -445 156 -11 4 -31 -17 -73
-81z m354 -189 c63 -21 117 -39 119 -41 5 -4 -63 -114 -70 -111 -4 1 -49 47
-100 101 -52 55 -87 97 -79 94 8 -3 67 -22 130 -43z"/>
<path d="M10345 8810 c-209 -131 -381 -243 -383 -249 -3 -8 55 -109 74 -130 2
-2 71 40 155 93 84 53 154 94 156 93 2 -2 -35 -91 -82 -198 -47 -107 -85 -200
-85 -207 0 -7 21 -46 46 -85 33 -51 48 -67 54 -56 4 8 56 129 115 269 59 140
111 259 115 264 5 4 121 3 261 -2 139 -6 255 -10 257 -8 2 2 -17 35 -41 74
-28 43 -54 72 -69 75 -12 4 -89 7 -170 7 -80 0 -154 3 -162 6 -12 4 17 27 96
76 62 39 119 76 127 83 11 11 7 23 -24 74 -21 34 -43 61 -49 61 -6 0 -182
-108 -391 -240z"/>
<path d="M5257 8390 c-238 -40 -445 -187 -551 -389 -49 -94 -1545 -3612 -1572
-3698 -130 -404 95 -836 501 -963 47 -15 106 -23 180 -27 101 -4 269 16 2015
241 1048 135 1957 253 2020 261 211 28 356 88 475 198 209 191 301 483 235
743 -46 182 7 111 -1357 1815 -699 874 -1287 1599 -1321 1631 -161 148 -411
223 -625 188z m288 -281 c61 -22 139 -68 187 -111 14 -12 587 -724 1273 -1581
909 -1136 1255 -1575 1276 -1620 88 -190 52 -407 -93 -563 -60 -63 -155 -122
-233 -143 -22 -6 -951 -128 -2065 -272 -1951 -252 -2028 -261 -2103 -250 -295
40 -497 338 -423 622 15 57 1544 3651 1574 3698 79 126 198 209 347 241 64 14
194 4 260 -21z"/>
<path d="M385 8057 c-31 -83 -44 -132 -36 -136 5 -3 117 -89 249 -191 l241
-185 -316 -5 -316 -5 -24 -69 c-12 -38 -22 -70 -20 -72 13 -11 872 -293 877
-287 4 5 17 36 28 70 l20 62 -221 75 -222 75 245 -6 246 -6 13 43 c7 23 15 48
17 55 3 8 -67 66 -183 150 -103 76 -192 141 -197 146 -6 5 90 -25 213 -66 152
-51 223 -70 226 -62 35 96 43 128 32 132 -7 3 -205 70 -440 149 -295 100 -429
142 -432 133z"/>
<path d="M11115 7876 c-87 -29 -454 -165 -481 -179 -76 -40 -118 -116 -117
-212 1 -124 56 -227 151 -283 80 -47 127 -40 402 62 129 48 254 98 278 112
118 69 149 213 77 360 -62 126 -183 181 -310 140z m134 -167 c51 -48 68 -147
31 -187 -29 -31 -52 -41 -260 -117 -194 -71 -250 -81 -293 -52 -51 33 -74 138
-41 185 21 31 34 36 259 118 218 80 266 88 304 53z"/>
<path d="M407 6071 c-157 -52 -251 -182 -251 -346 0 -171 107 -308 274 -351
214 -54 423 96 447 322 11 103 -36 223 -115 295 -94 88 -236 119 -355 80z"/>
<path d="M11077 6079 c-100 -24 -198 -105 -243 -202 -25 -54 -29 -74 -29 -152
0 -77 4 -98 27 -147 89 -190 299 -267 486 -178 251 118 278 468 49 623 -87 59
-191 79 -290 56z"/>
<path d="M856 4289 c-242 -82 -442 -152 -445 -154 -3 -3 5 -37 18 -75 l22 -69
218 74 c121 41 222 75 226 75 4 0 -83 -66 -193 -146 l-200 -146 17 -51 18 -52
252 0 c138 1 251 0 251 -1 0 -1 -98 -35 -217 -74 -120 -40 -221 -75 -225 -79
-9 -8 32 -141 43 -141 8 0 891 299 895 303 1 1 -10 34 -25 72 l-27 70 -322 5
-322 5 240 184 c131 101 247 189 256 196 16 11 15 17 -5 78 -13 37 -26 69 -29
71 -4 2 -205 -63 -446 -145z"/>
<path d="M10430 4350 c-95 -32 -166 -133 -185 -263 -14 -95 33 -193 118 -246
18 -11 144 -61 280 -111 272 -99 322 -108 402 -71 93 42 167 170 168 291 1
103 -42 178 -125 221 -53 27 -443 169 -508 185 -71 18 -84 17 -150 -6z m349
-223 c107 -39 208 -80 225 -92 65 -44 68 -144 6 -207 -46 -46 -85 -40 -331 52
-239 88 -269 108 -269 177 0 54 37 122 74 139 43 19 73 12 295 -69z"/>
<path d="M9961 3425 c-23 -35 -41 -71 -41 -79 0 -7 32 -84 70 -171 39 -87 70
-161 70 -166 0 -4 -57 28 -127 71 -70 44 -130 80 -134 80 -6 0 -90 -132 -86
-136 27 -20 786 -493 794 -496 13 -3 96 119 89 131 -3 4 -73 50 -155 102 -175
109 -175 106 24 108 66 1 156 4 201 7 l80 7 47 75 c25 42 45 78 43 79 -4 4
-445 -13 -552 -21 l-60 -5 -104 240 c-57 131 -107 239 -111 239 -4 0 -26 -29
-48 -65z"/>
<path d="M1410 3013 c-245 -91 -447 -167 -449 -169 -2 -2 11 -27 28 -56 60
-99 43 -94 176 -42 64 25 118 44 120 42 4 -3 94 -142 108 -165 5 -7 -27 -47
-79 -102 l-87 -91 50 -75 49 -75 325 356 c178 196 326 360 328 366 4 11 -106
178 -117 177 -4 0 -207 -75 -452 -166z m204 -173 c-49 -55 -91 -100 -95 -100
-3 0 -23 25 -43 55 l-37 56 28 10 c15 6 73 27 128 48 55 20 102 36 104 35 2
-2 -36 -48 -85 -104z"/>
<path d="M9312 2489 c-40 -16 -81 -48 -172 -136 -66 -63 -120 -120 -120 -127
0 -6 150 -161 333 -344 l333 -333 130 133 c138 141 165 182 172 264 7 81 -20
148 -88 216 -67 66 -140 95 -216 83 l-44 -6 0 38 c-1 74 -65 169 -141 209 -51
26 -126 27 -187 3z m144 -203 c64 -64 58 -110 -24 -190 l-41 -39 -79 84 -80
84 31 34 c80 84 129 91 193 27z m320 -249 c23 -24 46 -56 50 -72 10 -38 -22
-97 -87 -161 l-49 -49 -97 98 -98 97 45 46 c56 57 104 83 154 84 33 0 45 -7
82 -43z"/>
<path d="M2134 2182 c-154 -158 -302 -311 -329 -340 l-49 -53 58 -57 57 -57
129 135 c92 96 129 129 130 115 0 -11 -16 -112 -36 -224 l-36 -204 66 -65 c36
-37 67 -64 69 -62 2 3 26 140 53 305 l49 299 230 46 c127 26 243 50 259 54
l29 7 -62 63 -63 63 -181 -38 c-100 -21 -183 -36 -185 -35 -2 2 45 53 103 114
58 60 105 112 105 114 0 3 -26 28 -59 56 l-58 51 -279 -287z"/>
<path d="M8552 1849 c-34 -22 -61 -43 -58 -47 2 -4 78 -129 169 -278 189 -311
193 -318 202 -365 5 -30 2 -41 -20 -68 -32 -38 -93 -71 -131 -71 -47 0 -103
74 -273 355 -90 149 -169 275 -175 282 -9 10 -25 4 -74 -27 l-62 -39 123 -203
c293 -481 281 -464 351 -500 57 -29 161 -23 238 15 117 57 196 172 185 267 -3
27 -15 66 -25 87 -21 41 -369 613 -380 625 -4 4 -35 -11 -70 -33z"/>
<path d="M3176 1716 c-79 -30 -145 -121 -146 -201 0 -68 18 -109 97 -226 88
-132 103 -163 103 -221 0 -83 -69 -147 -144 -133 -50 10 -108 46 -134 85 -20
29 -23 44 -19 89 l4 53 -65 30 c-36 16 -71 27 -78 24 -18 -7 -37 -102 -30
-148 16 -101 107 -207 223 -259 86 -39 144 -46 218 -25 103 31 195 155 195
265 0 68 -35 156 -104 260 -74 114 -106 173 -106 196 0 26 46 65 77 65 44 -1
109 -35 166 -89 l52 -49 53 45 c28 24 52 51 52 58 0 26 -100 112 -172 149 -87
43 -178 56 -242 32z"/>
<path d="M7406 1270 c-159 -55 -291 -102 -293 -104 -3 -2 5 -36 18 -74 l22
-70 204 70 c113 38 206 68 209 65 2 -2 -45 -175 -106 -385 l-110 -381 23 -63
c16 -43 28 -62 38 -60 18 5 603 204 608 208 1 1 -7 32 -19 69 -20 59 -24 65
-43 59 -12 -4 -112 -37 -222 -75 -110 -37 -201 -67 -202 -66 -1 1 49 173 111
383 l112 381 -24 71 c-13 40 -27 72 -30 71 -4 0 -137 -45 -296 -99z"/>
<path d="M4056 1105 c-72 -219 -80 -271 -55 -354 30 -100 156 -188 286 -200
l62 -6 -24 -60 c-29 -71 -55 -95 -101 -95 l-34 0 0 -52 c0 -29 5 -60 10 -68
13 -21 116 -19 158 3 64 34 85 81 213 465 67 202 124 372 126 377 3 10 -135
61 -142 53 -1 -1 -36 -104 -76 -226 -67 -204 -77 -225 -103 -239 -35 -18 -92
-11 -154 19 -51 24 -82 69 -82 117 0 25 87 312 127 417 4 10 -103 54 -132 54
-6 0 -41 -92 -79 -205z"/>
<path d="M5186 1028 c-6 -20 -79 -929 -75 -932 2 -2 37 -6 77 -10 70 -6 72 -5
72 16 1 50 37 429 42 433 2 3 27 -97 54 -221 27 -124 52 -230 55 -235 3 -6 30
-13 61 -16 l54 -5 95 230 c52 127 95 229 97 228 1 -2 -7 -106 -18 -232 -10
-126 -16 -232 -12 -235 4 -4 37 -9 74 -12 l68 -5 5 32 c11 69 77 908 72 913
-3 3 -38 6 -78 7 l-71 1 -127 -287 c-70 -158 -130 -290 -133 -293 -3 -4 -40
135 -82 308 l-77 314 -52 7 c-76 9 -97 7 -101 -6z"/>
</g>
</svg>
