{"asset":{"generator":"glTF-Transform v3.4.0","version":"2.0","extras":{"author":"ottobite (https://sketchfab.com/ottobite)","license":"CC-BY-4.0 (http://creativecommons.org/licenses/by/4.0/)","source":"https://sketchfab.com/3d-models/stylized-hacked-pc-sketchfabweeklychallenge-192ab9d4706f4ffaaf22f9a299289d75","title":"Stylized Hacked PC #SketchfabWeeklyChallenge"}},"accessors":[{"type":"SCALAR","componentType":5123,"count":89886,"normalized":false,"byteOffset":0,"bufferView":0},{"type":"VEC3","componentType":5120,"count":20672,"normalized":true,"byteOffset":0,"bufferView":1},{"type":"VEC4","componentType":5120,"count":20672,"normalized":true,"byteOffset":82688,"bufferView":1},{"type":"VEC2","componentType":5126,"count":20672,"normalized":false,"byteOffset":0,"bufferView":2},{"type":"VEC3","componentType":5122,"count":20672,"max":[32767,22802,25139],"min":[-32767,-22802,-25139],"normalized":true,"byteOffset":165376,"bufferView":2}],"bufferViews":[{"buffer":1,"byteOffset":0,"byteLength":179772,"target":34963,"extensions":{"EXT_meshopt_compression":{"buffer":0,"byteOffset":0,"byteLength":32384,"mode":"TRIANGLES","byteStride":2,"count":89886}}},{"buffer":1,"byteOffset":179772,"byteLength":165376,"target":34962,"byteStride":4,"extensions":{"EXT_meshopt_compression":{"buffer":0,"byteOffset":32384,"byteLength":80183,"mode":"ATTRIBUTES","filter":"OCTAHEDRAL","byteStride":4,"count":41344}}},{"buffer":1,"byteOffset":345148,"byteLength":330752,"target":34962,"byteStride":8,"extensions":{"EXT_meshopt_compression":{"buffer":0,"byteOffset":112568,"byteLength":187512,"mode":"ATTRIBUTES","byteStride":8,"count":41344}}}],"samplers":[{"magFilter":9729,"minFilter":9987,"wrapS":10497,"wrapT":10497}],"textures":[{"source":0,"sampler":0},{"source":2,"sampler":0},{"source":3,"sampler":0},{"source":1,"sampler":0}],"images":[{"mimeType":"image/jpeg","uri":"textures/lambert1_baseColor.jpeg"},{"mimeType":"image/png","uri":"textures/lambert1_metallicRoughness.png"},{"mimeType":"image/jpeg","uri":"textures/lambert1_emissive.jpeg"},{"mimeType":"image/png","uri":"textures/lambert1_normal.png"}],"buffers":[{"uri":"scene.bin","byteLength":300080},{"byteLength":675900,"extensions":{"EXT_meshopt_compression":{"fallback":true}}}],"materials":[{"name":"lambert1","pbrMetallicRoughness":{"baseColorTexture":{"index":0},"metallicRoughnessTexture":{"index":3}},"emissiveFactor":[1,1,1],"emissiveTexture":{"index":1},"normalTexture":{"index":2}}],"meshes":[{"name":"Final_lambert1_0","primitives":[{"attributes":{"NORMAL":1,"TANGENT":2,"TEXCOORD_0":3,"POSITION":4},"mode":4,"material":0,"indices":0}]}],"nodes":[{"name":"Sketchfab_model","rotation":[-0.7071067811865475,0,0,0.7071067811865476],"scale":[21.276596069335938,21.276596069335938,21.276596069335938],"children":[1]},{"name":"78a9345b4b264479ae16e7fcb2ccb6b9.fbx","rotation":[0.7071067811865475,0,0,0.7071067811865476],"scale":[0.009999999776482582,0.009999999776482582,0.009999999776482582],"children":[2]},{"name":"RootNode","children":[3]},{"name":"Final","children":[4]},{"name":"Final_lambert1_0","translation":[1.53245210647583,6.736996173858643,1.2971715927124023],"scale":[5.5451579093933105,5.5451579093933105,5.5451579093933105],"mesh":0}],"scenes":[{"name":"Sketchfab_Scene","nodes":[0]}],"scene":0,"extensionsUsed":["KHR_mesh_quantization","EXT_meshopt_compression"],"extensionsRequired":["KHR_mesh_quantization","EXT_meshopt_compression"]}