{
	"asset":{
		"generator":"Khronos glTF Blender I/O v3.6.27",
		"version":"2.0"
	},
	"scene":0,
	"scenes":[
		{
			"name":"Scene",
			"nodes":[
				22
			]
		}
	],
	"nodes":[
		{
			"mesh":0,
			"name":"vending_rack_1_vending_mat_0"
		},
		{
			"children":[
				0
			],
			"name":"vending_rack_1"
		},
		{
			"mesh":1,
			"name":"vending_rack_2_vending_mat_0"
		},
		{
			"children":[
				2
			],
			"name":"vending_rack_2"
		},
		{
			"mesh":2,
			"name":"vending_rack_3_vending_mat_0"
		},
		{
			"children":[
				4
			],
			"name":"vending_rack_3",
			"translation":[
				0,
				-4.999999523162842,
				0
			]
		},
		{
			"mesh":3,
			"name":"vending_rack_4_vending_mat_0"
		},
		{
			"children":[
				6
			],
			"name":"vending_rack_4",
			"translation":[
				0,
				-9.999999046325684,
				0
			]
		},
		{
			"mesh":4,
			"name":"vending_rack_5_vending_mat_0"
		},
		{
			"children":[
				8
			],
			"name":"vending_rack_5",
			"translation":[
				0,
				-14.999999046325684,
				0
			]
		},
		{
			"children":[
				1,
				3,
				5,
				7,
				9
			],
			"name":"racks"
		},
		{
			"mesh":5,
			"name":"vending_edge_vending_mat_0"
		},
		{
			"children":[
				11
			],
			"name":"vending_edge"
		},
		{
			"mesh":6,
			"name":"vending_machine_vending_mat_0"
		},
		{
			"mesh":7,
			"name":"vending_pad_vending_mat_0"
		},
		{
			"children":[
				14
			],
			"name":"vending_pad",
			"translation":[
				0,
				0,
				-0.010084757581353188
			]
		},
		{
			"mesh":8,
			"name":"vending_sign_vending_mat_0"
		},
		{
			"children":[
				16
			],
			"name":"vending_sign"
		},
		{
			"name":"venfing_glass"
		},
		{
			"children":[
				10,
				12,
				13,
				15,
				17,
				18
			],
			"name":"vending_machine"
		},
		{
			"children":[
				19
			],
			"name":"RootNode"
		},
		{
			"children":[
				20
			],
			"name":"03cbd1df115f4da0be73d9bcc5dd2ac8.fbx",
			"rotation":[
				0.70710688829422,
				0,
				0,
				0.7071066498756409
			],
			"scale":[
				0.009999999776482582,
				0.009999999776482582,
				0.009999999776482582
			]
		},
		{
			"children":[
				21
			],
			"name":"Sketchfab_model",
			"rotation":[
				-0.70710688829422,
				0,
				0,
				0.7071066498756409
			]
		}
	],
	"materials":[
		{
			"doubleSided":true,
			"emissiveFactor":[
				1,
				1,
				1
			],
			"emissiveTexture":{
				"index":0
			},
			"name":"vending_mat.003",
			"normalTexture":{
				"index":1
			},
			"pbrMetallicRoughness":{
				"baseColorTexture":{
					"index":2
				},
				"metallicRoughnessTexture":{
					"index":3
				}
			}
		}
	],
	"meshes":[
		{
			"name":"vending_rack_1_vending_mat_0.003",
			"primitives":[
				{
					"attributes":{
						"POSITION":0,
						"NORMAL":1,
						"TEXCOORD_0":2
					},
					"indices":3,
					"material":0
				}
			]
		},
		{
			"name":"vending_rack_2_vending_mat_0.003",
			"primitives":[
				{
					"attributes":{
						"POSITION":4,
						"NORMAL":5,
						"TEXCOORD_0":6
					},
					"indices":7,
					"material":0
				}
			]
		},
		{
			"name":"vending_rack_3_vending_mat_0.003",
			"primitives":[
				{
					"attributes":{
						"POSITION":8,
						"NORMAL":9,
						"TEXCOORD_0":10
					},
					"indices":3,
					"material":0
				}
			]
		},
		{
			"name":"vending_rack_4_vending_mat_0.003",
			"primitives":[
				{
					"attributes":{
						"POSITION":11,
						"NORMAL":12,
						"TEXCOORD_0":13
					},
					"indices":3,
					"material":0
				}
			]
		},
		{
			"name":"vending_rack_5_vending_mat_0.003",
			"primitives":[
				{
					"attributes":{
						"POSITION":14,
						"NORMAL":15,
						"TEXCOORD_0":16
					},
					"indices":3,
					"material":0
				}
			]
		},
		{
			"name":"vending_edge_vending_mat_0.003",
			"primitives":[
				{
					"attributes":{
						"POSITION":17,
						"NORMAL":18,
						"TEXCOORD_0":19
					},
					"indices":20,
					"material":0
				}
			]
		},
		{
			"name":"vending_machine_vending_mat_0.003",
			"primitives":[
				{
					"attributes":{
						"POSITION":21,
						"NORMAL":22,
						"TEXCOORD_0":23
					},
					"indices":24,
					"material":0
				}
			]
		},
		{
			"name":"vending_pad_vending_mat_0.003",
			"primitives":[
				{
					"attributes":{
						"POSITION":25,
						"NORMAL":26,
						"TEXCOORD_0":27
					},
					"indices":28,
					"material":0
				}
			]
		},
		{
			"name":"vending_sign_vending_mat_0.003",
			"primitives":[
				{
					"attributes":{
						"POSITION":29,
						"NORMAL":30,
						"TEXCOORD_0":31
					},
					"indices":32,
					"material":0
				}
			]
		}
	],
	"textures":[
		{
			"sampler":0,
			"source":0
		},
		{
			"sampler":0,
			"source":1
		},
		{
			"sampler":0,
			"source":2
		},
		{
			"sampler":0,
			"source":3
		}
	],
	"images":[
		{
			"mimeType":"image/png",
			"name":"vending_mat_emissive",
			"uri":"textures/vending_mat_emissive.png"
		},
		{
			"mimeType":"image/png",
			"name":"vending_mat_normal",
			"uri":"textures/vending_mat_normal.png"
		},
		{
			"mimeType":"image/png",
			"name":"vending_mat_baseColor",
			"uri":"textures/vending_mat_baseColor.png"
		},
		{
			"mimeType":"image/png",
			"name":"vending_mat_metallicRoughness",
			"uri":"textures/vending_mat_metallicRoughness.png"
		}
	],
	"accessors":[
		{
			"bufferView":0,
			"componentType":5126,
			"count":48,
			"max":[
				4.9608473777771,
				24.16254425048828,
				2.500715732574463
			],
			"min":[
				-6.589383602142334,
				23.548402786254883,
				-0.4291269779205322
			],
			"type":"VEC3"
		},
		{
			"bufferView":1,
			"componentType":5126,
			"count":48,
			"type":"VEC3"
		},
		{
			"bufferView":2,
			"componentType":5126,
			"count":48,
			"type":"VEC2"
		},
		{
			"bufferView":3,
			"componentType":5123,
			"count":78,
			"type":"SCALAR"
		},
		{
			"bufferView":4,
			"componentType":5126,
			"count":42,
			"max":[
				4.9608473777771,
				4.162543296813965,
				2.500715732574463
			],
			"min":[
				-6.589383602142334,
				2.3273019790649414,
				-0.4291269779205322
			],
			"type":"VEC3"
		},
		{
			"bufferView":5,
			"componentType":5126,
			"count":42,
			"type":"VEC3"
		},
		{
			"bufferView":6,
			"componentType":5126,
			"count":42,
			"type":"VEC2"
		},
		{
			"bufferView":7,
			"componentType":5123,
			"count":66,
			"type":"SCALAR"
		},
		{
			"bufferView":8,
			"componentType":5126,
			"count":48,
			"max":[
				4.9608473777771,
				24.16254425048828,
				2.500715732574463
			],
			"min":[
				-6.589383602142334,
				23.548402786254883,
				-0.4291269779205322
			],
			"type":"VEC3"
		},
		{
			"bufferView":9,
			"componentType":5126,
			"count":48,
			"type":"VEC3"
		},
		{
			"bufferView":10,
			"componentType":5126,
			"count":48,
			"type":"VEC2"
		},
		{
			"bufferView":11,
			"componentType":5126,
			"count":48,
			"max":[
				4.9608473777771,
				24.16254425048828,
				2.500715732574463
			],
			"min":[
				-6.589383602142334,
				23.548402786254883,
				-0.4291269779205322
			],
			"type":"VEC3"
		},
		{
			"bufferView":12,
			"componentType":5126,
			"count":48,
			"type":"VEC3"
		},
		{
			"bufferView":13,
			"componentType":5126,
			"count":48,
			"type":"VEC2"
		},
		{
			"bufferView":14,
			"componentType":5126,
			"count":48,
			"max":[
				4.9608473777771,
				24.16254425048828,
				2.500715732574463
			],
			"min":[
				-6.589383602142334,
				23.548402786254883,
				-0.4291269779205322
			],
			"type":"VEC3"
		},
		{
			"bufferView":15,
			"componentType":5126,
			"count":48,
			"type":"VEC3"
		},
		{
			"bufferView":16,
			"componentType":5126,
			"count":48,
			"type":"VEC2"
		},
		{
			"bufferView":17,
			"componentType":5126,
			"count":74,
			"max":[
				-7.008231163024902,
				26.177963256835938,
				3.5113255977630615
			],
			"min":[
				-7.864434242248535,
				14.300811767578125,
				3.0600180625915527
			],
			"type":"VEC3"
		},
		{
			"bufferView":18,
			"componentType":5126,
			"count":74,
			"type":"VEC3"
		},
		{
			"bufferView":19,
			"componentType":5126,
			"count":74,
			"type":"VEC2"
		},
		{
			"bufferView":20,
			"componentType":5123,
			"count":156,
			"type":"SCALAR"
		},
		{
			"bufferView":21,
			"componentType":5126,
			"count":362,
			"max":[
				12.230405807495117,
				30.49268913269043,
				3.353386878967285
			],
			"min":[
				-7.716549873352051,
				0.08494758605957031,
				-4.472287178039551
			],
			"type":"VEC3"
		},
		{
			"bufferView":22,
			"componentType":5126,
			"count":362,
			"type":"VEC3"
		},
		{
			"bufferView":23,
			"componentType":5126,
			"count":362,
			"type":"VEC2"
		},
		{
			"bufferView":24,
			"componentType":5123,
			"count":1284,
			"type":"SCALAR"
		},
		{
			"bufferView":25,
			"componentType":5126,
			"count":131,
			"max":[
				11.000238418579102,
				17.702632904052734,
				3.6861989498138428
			],
			"min":[
				6.5277252197265625,
				11.248991012573242,
				3.3055219650268555
			],
			"type":"VEC3"
		},
		{
			"bufferView":26,
			"componentType":5126,
			"count":131,
			"type":"VEC3"
		},
		{
			"bufferView":27,
			"componentType":5126,
			"count":131,
			"type":"VEC2"
		},
		{
			"bufferView":28,
			"componentType":5123,
			"count":390,
			"type":"SCALAR"
		},
		{
			"bufferView":29,
			"componentType":5126,
			"count":332,
			"max":[
				11.533628463745117,
				31.85443687438965,
				4.39422082901001
			],
			"min":[
				6.060092449188232,
				18.48261260986328,
				-4.570781707763672
			],
			"type":"VEC3"
		},
		{
			"bufferView":30,
			"componentType":5126,
			"count":332,
			"type":"VEC3"
		},
		{
			"bufferView":31,
			"componentType":5126,
			"count":332,
			"type":"VEC2"
		},
		{
			"bufferView":32,
			"componentType":5123,
			"count":780,
			"type":"SCALAR"
		}
	],
	"bufferViews":[
		{
			"buffer":0,
			"byteLength":576,
			"byteOffset":0,
			"target":34962
		},
		{
			"buffer":0,
			"byteLength":576,
			"byteOffset":576,
			"target":34962
		},
		{
			"buffer":0,
			"byteLength":384,
			"byteOffset":1152,
			"target":34962
		},
		{
			"buffer":0,
			"byteLength":156,
			"byteOffset":1536,
			"target":34963
		},
		{
			"buffer":0,
			"byteLength":504,
			"byteOffset":1692,
			"target":34962
		},
		{
			"buffer":0,
			"byteLength":504,
			"byteOffset":2196,
			"target":34962
		},
		{
			"buffer":0,
			"byteLength":336,
			"byteOffset":2700,
			"target":34962
		},
		{
			"buffer":0,
			"byteLength":132,
			"byteOffset":3036,
			"target":34963
		},
		{
			"buffer":0,
			"byteLength":576,
			"byteOffset":3168,
			"target":34962
		},
		{
			"buffer":0,
			"byteLength":576,
			"byteOffset":3744,
			"target":34962
		},
		{
			"buffer":0,
			"byteLength":384,
			"byteOffset":4320,
			"target":34962
		},
		{
			"buffer":0,
			"byteLength":576,
			"byteOffset":4704,
			"target":34962
		},
		{
			"buffer":0,
			"byteLength":576,
			"byteOffset":5280,
			"target":34962
		},
		{
			"buffer":0,
			"byteLength":384,
			"byteOffset":5856,
			"target":34962
		},
		{
			"buffer":0,
			"byteLength":576,
			"byteOffset":6240,
			"target":34962
		},
		{
			"buffer":0,
			"byteLength":576,
			"byteOffset":6816,
			"target":34962
		},
		{
			"buffer":0,
			"byteLength":384,
			"byteOffset":7392,
			"target":34962
		},
		{
			"buffer":0,
			"byteLength":888,
			"byteOffset":7776,
			"target":34962
		},
		{
			"buffer":0,
			"byteLength":888,
			"byteOffset":8664,
			"target":34962
		},
		{
			"buffer":0,
			"byteLength":592,
			"byteOffset":9552,
			"target":34962
		},
		{
			"buffer":0,
			"byteLength":312,
			"byteOffset":10144,
			"target":34963
		},
		{
			"buffer":0,
			"byteLength":4344,
			"byteOffset":10456,
			"target":34962
		},
		{
			"buffer":0,
			"byteLength":4344,
			"byteOffset":14800,
			"target":34962
		},
		{
			"buffer":0,
			"byteLength":2896,
			"byteOffset":19144,
			"target":34962
		},
		{
			"buffer":0,
			"byteLength":2568,
			"byteOffset":22040,
			"target":34963
		},
		{
			"buffer":0,
			"byteLength":1572,
			"byteOffset":24608,
			"target":34962
		},
		{
			"buffer":0,
			"byteLength":1572,
			"byteOffset":26180,
			"target":34962
		},
		{
			"buffer":0,
			"byteLength":1048,
			"byteOffset":27752,
			"target":34962
		},
		{
			"buffer":0,
			"byteLength":780,
			"byteOffset":28800,
			"target":34963
		},
		{
			"buffer":0,
			"byteLength":3984,
			"byteOffset":29580,
			"target":34962
		},
		{
			"buffer":0,
			"byteLength":3984,
			"byteOffset":33564,
			"target":34962
		},
		{
			"buffer":0,
			"byteLength":2656,
			"byteOffset":37548,
			"target":34962
		},
		{
			"buffer":0,
			"byteLength":1560,
			"byteOffset":40204,
			"target":34963
		}
	],
	"samplers":[
		{
			"magFilter":9729,
			"minFilter":9987
		}
	],
	"buffers":[
		{
			"byteLength":41764,
			"uri":"scene.bin"
		}
	]
}
